<svg width="29" height="43" viewBox="0 0 29 43" fill="none" xmlns="http://www.w3.org/2000/svg">
<mask id="path-1-outside-1_1_32" maskUnits="userSpaceOnUse" x="0" y="11" width="9" height="10" fill="black">
<rect fill="white" y="11" width="9" height="10"/>
<path d="M1 15.6543H4.04883V12.5986H4.93066V15.6543H8V16.5361H4.93066V19.5986H4.04883V16.5361H1V15.6543Z"/>
</mask>
<path d="M1 15.6543H4.04883V12.5986H4.93066V15.6543H8V16.5361H4.93066V19.5986H4.04883V16.5361H1V15.6543Z" fill="black"/>
<path d="M1 15.6543V14.8543H0.2V15.6543H1ZM4.04883 15.6543V16.4543H4.84883V15.6543H4.04883ZM4.04883 12.5986V11.7986H3.24883V12.5986H4.04883ZM4.93066 12.5986H5.73066V11.7986H4.93066V12.5986ZM4.93066 15.6543H4.13066V16.4543H4.93066V15.6543ZM8 15.6543H8.8V14.8543H8V15.6543ZM8 16.5361V17.3361H8.8V16.5361H8ZM4.93066 16.5361V15.7361H4.13066V16.5361H4.93066ZM4.93066 19.5986V20.3986H5.73066V19.5986H4.93066ZM4.04883 19.5986H3.24883V20.3986H4.04883V19.5986ZM4.04883 16.5361H4.84883V15.7361H4.04883V16.5361ZM1 16.5361H0.2V17.3361H1V16.5361ZM1 16.4543H4.04883V14.8543H1V16.4543ZM4.84883 15.6543V12.5986H3.24883V15.6543H4.84883ZM4.04883 13.3986H4.93066V11.7986H4.04883V13.3986ZM4.13066 12.5986V15.6543H5.73066V12.5986H4.13066ZM4.93066 16.4543H8V14.8543H4.93066V16.4543ZM7.2 15.6543V16.5361H8.8V15.6543H7.2ZM8 15.7361H4.93066V17.3361H8V15.7361ZM4.13066 16.5361V19.5986H5.73066V16.5361H4.13066ZM4.93066 18.7986H4.04883V20.3986H4.93066V18.7986ZM4.84883 19.5986V16.5361H3.24883V19.5986H4.84883ZM4.04883 15.7361H1V17.3361H4.04883V15.7361ZM1.8 16.5361V15.6543H0.2V16.5361H1.8Z" fill="black" mask="url(#path-1-outside-1_1_32)"/>
<path d="M22.8387 10.0646L20.3996 9.1824L4.89044 33.3647L7.32955 34.2469L22.8387 10.0646Z" fill="black"/>
<path d="M18.125 29.1094H26.875V26.8945H18.125V29.1094Z" fill="black"/>
</svg>
